<svg width="209" height="212" viewBox="0 0 209 212" fill="none" xmlns="http://www.w3.org/2000/svg">
<g clip-path="url(#clip0_514_69)">
<path fill-rule="evenodd" clip-rule="evenodd" d="M201.998 16.468L169.265 34.433C166.676 35.7224 163.92 35.3756 162.074 33.809C159.222 30.5661 157.859 25.9501 156.742 22.207C156.742 22.207 160.819 21.1666 164.057 19.5729C169.76 16.5789 201.997 0 201.997 0V16.468H201.998Z" fill="#007858"/>
<path fill-rule="evenodd" clip-rule="evenodd" d="M127.3 30.6899L114.462 57.8869C113.015 60.9331 111.487 65.747 107.642 67.993C99.832 73.482 80.6122 76.3509 80.6122 76.3509L79.28 76.5292C79.28 76.5292 103.664 30.2953 115.443 8.71228H141.49L183.321 101.984H182.903H157.982C153.487 101.984 153.796 98.2318 149.054 86.207C148.064 83.463 127.3 30.6899 127.3 30.6899Z" fill="#72777A"/>
<path fill-rule="evenodd" clip-rule="evenodd" d="M96.2374 12.725C97.7252 17.0909 98.9645 21.583 99.7089 26.074C75.2835 26.573 54.8255 39.1729 39.3267 57.513C35.0795 63.1422 30.0285 69.739 33.6231 77.2251C38.8005 87.5485 59.413 85.521 72.6797 83.712C86.3806 81.1551 96.6091 78.223 108.016 73.482C111.24 72.234 117.563 69.739 117.563 69.739L123.515 66.87L135.419 60.757L138.642 59.135L159.435 47.9385L202 24.39V45.162L167.903 65.747L145.834 77.973C145.834 77.973 114.092 93.318 97.2304 98.308C94.673 99.0896 93.6649 99.3995 90.7823 100.055C74.5402 103.297 55.4457 105.794 40.3196 98.558C32.2606 94.815 25.3167 87.0028 21.7513 79.096C20.2646 75.8542 19.504 72.484 18.8838 68.991C18.8838 67.743 18.6515 65.9503 18.6515 64.8729C18.6515 46.846 32.2596 33.185 45.1535 23.08C47.8805 20.959 52.4842 17.9639 54.2972 16.9822C56.3122 15.8907 59.722 14.5024 62.8218 13.0054C68.8657 10.355 76.2278 7.78064 83.4656 7.2349C88.7036 7.00116 94.2527 7.48494 96.2374 12.725Z" fill="#72777A"/>
<path fill-rule="evenodd" clip-rule="evenodd" d="M188.731 113.156V128H18V113.156H188.731Z" fill="#72777A"/>
</g>
<path d="M16.3766 171V156.264H11.2406V153H25.7366V156.264H20.6006V171H16.3766ZM27.45 166.128V153H39.306V156.264H31.674V160.128H38.418V163.392H31.674V165.576C31.674 166.392 31.834 166.96 32.154 167.28C32.474 167.584 33.002 167.736 33.738 167.736H39.402V171H32.106C30.57 171 29.41 170.576 28.626 169.728C27.842 168.88 27.45 167.68 27.45 166.128ZM40.971 163.008V160.992C40.971 158.208 41.803 156.152 43.467 154.824C45.131 153.48 47.299 152.808 49.971 152.808C50.803 152.808 51.659 152.888 52.539 153.048C53.419 153.192 54.139 153.368 54.699 153.576V158.52H51.315V156.288C51.091 156.224 50.819 156.176 50.499 156.144C50.195 156.096 49.891 156.072 49.587 156.072C48.211 156.072 47.131 156.488 46.347 157.32C45.563 158.136 45.171 159.32 45.171 160.872V163.008C45.171 164.512 45.563 165.712 46.347 166.608C47.147 167.488 48.267 167.928 49.707 167.928H50.571C51.259 167.928 51.995 167.84 52.779 167.664C53.579 167.488 54.155 167.328 54.507 167.184H54.699V170.352C54.267 170.544 53.643 170.736 52.827 170.928C52.011 171.104 51.259 171.192 50.571 171.192H49.467C46.635 171.192 44.507 170.456 43.083 168.984C41.675 167.512 40.971 165.52 40.971 163.008ZM56.9822 171V153H61.1822V159.888H67.9262V153H72.1262V171H67.9262V163.392H61.1822V171H56.9822ZM74.924 171V153H78.38L85.94 163.752V153H90.14V171H86.708L79.148 160.248V171H74.924ZM92.3357 162.624V161.376C92.3357 158.672 93.0237 156.568 94.3997 155.064C95.7917 153.56 97.8077 152.808 100.448 152.808C103.088 152.808 105.096 153.552 106.472 155.04C107.864 156.528 108.56 158.64 108.56 161.376V162.624C108.56 165.328 107.864 167.432 106.472 168.936C105.096 170.44 103.088 171.192 100.448 171.192C97.8077 171.192 95.7917 170.448 94.3997 168.96C93.0237 167.472 92.3357 165.36 92.3357 162.624ZM96.5357 162.624C96.5357 164.288 96.8157 165.568 97.3757 166.464C97.9357 167.36 98.9597 167.808 100.448 167.808C101.936 167.808 102.96 167.36 103.52 166.464C104.08 165.568 104.36 164.288 104.36 162.624V161.376C104.36 159.712 104.08 158.432 103.52 157.536C102.96 156.64 101.936 156.192 100.448 156.192C98.9597 156.192 97.9357 156.64 97.3757 157.536C96.8157 158.432 96.5357 159.712 96.5357 161.376V162.624ZM110.714 166.128V153H114.938V165.576C114.938 166.392 115.098 166.96 115.418 167.28C115.738 167.584 116.266 167.736 117.002 167.736H121.586V171H115.37C113.834 171 112.674 170.576 111.89 169.728C111.106 168.864 110.714 167.664 110.714 166.128ZM122.36 162.624V161.376C122.36 158.672 123.048 156.568 124.424 155.064C125.816 153.56 127.832 152.808 130.472 152.808C133.112 152.808 135.12 153.552 136.496 155.04C137.888 156.528 138.584 158.64 138.584 161.376V162.624C138.584 165.328 137.888 167.432 136.496 168.936C135.12 170.44 133.112 171.192 130.472 171.192C127.832 171.192 125.816 170.448 124.424 168.96C123.048 167.472 122.36 165.36 122.36 162.624ZM126.56 162.624C126.56 164.288 126.84 165.568 127.4 166.464C127.96 167.36 128.984 167.808 130.472 167.808C131.96 167.808 132.984 167.36 133.544 166.464C134.104 165.568 134.384 164.288 134.384 162.624V161.376C134.384 159.712 134.104 158.432 133.544 157.536C132.984 156.64 131.96 156.192 130.472 156.192C128.984 156.192 127.96 156.64 127.4 157.536C126.84 158.432 126.56 159.712 126.56 161.376V162.624ZM140.114 163.008V160.92C140.114 158.136 141.042 156.088 142.898 154.776C144.77 153.464 147.002 152.808 149.594 152.808C150.602 152.808 151.618 152.92 152.642 153.144C153.682 153.352 154.386 153.544 154.754 153.72V156.936H154.586C154.122 156.76 153.394 156.576 152.402 156.384C151.426 156.176 150.506 156.072 149.642 156.072C148.234 156.072 146.994 156.432 145.922 157.152C144.85 157.872 144.314 159.128 144.314 160.92V163.008C144.314 164.608 144.746 165.832 145.61 166.68C146.474 167.512 147.594 167.928 148.97 167.928H149.714C150.002 167.928 150.29 167.912 150.578 167.88C150.866 167.832 151.13 167.776 151.37 167.712V164.4H148.61V161.088H155.018V170.184C154.586 170.36 153.842 170.576 152.786 170.832C151.73 171.072 150.706 171.192 149.714 171.192H148.85C146.034 171.192 143.874 170.44 142.37 168.936C140.866 167.432 140.114 165.456 140.114 163.008ZM157.672 171V153H161.872V171H157.672ZM164.669 166.128V153H176.525V156.264H168.893V160.128H175.637V163.392H168.893V165.576C168.893 166.392 169.053 166.96 169.373 167.28C169.693 167.584 170.221 167.736 170.957 167.736H176.621V171H169.325C167.789 171 166.629 170.576 165.845 169.728C165.061 168.88 164.669 167.68 164.669 166.128ZM178.736 170.448V167.184H178.928C179.472 167.36 180.224 167.528 181.184 167.688C182.16 167.848 182.984 167.928 183.656 167.928H184.28C185.096 167.928 185.784 167.784 186.344 167.496C186.904 167.192 187.184 166.632 187.184 165.816C187.184 165.16 186.992 164.696 186.608 164.424C186.224 164.152 185.696 163.92 185.024 163.728L182.6 163.008C181.672 162.736 180.808 162.224 180.008 161.472C179.208 160.704 178.808 159.584 178.808 158.112C178.808 156.304 179.48 154.968 180.824 154.104C182.184 153.24 183.768 152.808 185.576 152.808H186.008C186.664 152.808 187.464 152.88 188.408 153.024C189.352 153.152 190.072 153.312 190.568 153.504V156.648H190.376C189.928 156.52 189.256 156.392 188.36 156.264C187.464 156.136 186.72 156.072 186.128 156.072H185.648C184.912 156.072 184.28 156.208 183.752 156.48C183.24 156.736 182.984 157.216 182.984 157.92C182.984 158.544 183.176 158.984 183.56 159.24C183.96 159.48 184.408 159.672 184.904 159.816L187.28 160.536C188.448 160.888 189.424 161.432 190.208 162.168C190.992 162.904 191.384 164.04 191.384 165.576C191.384 167.496 190.72 168.912 189.392 169.824C188.08 170.736 186.456 171.192 184.52 171.192H183.656C182.968 171.192 182.112 171.112 181.088 170.952C180.064 170.776 179.28 170.608 178.736 170.448ZM37.7673 194.936C37.7673 193.928 38.0393 193.032 38.5833 192.248C39.1433 191.448 39.8793 190.872 40.7913 190.52C40.1353 190.2 39.5833 189.712 39.1353 189.056C38.7033 188.4 38.4873 187.608 38.4873 186.68C38.4873 185.032 39.1193 183.808 40.3833 183.008C41.6633 182.208 43.1193 181.808 44.7513 181.808H45.6873C46.2953 181.808 47.0153 181.872 47.8473 182C48.6793 182.128 49.3433 182.296 49.8393 182.504V185.744H49.6473C49.1513 185.616 48.5193 185.488 47.7513 185.36C46.9993 185.216 46.3113 185.144 45.6873 185.144H45.2313C44.4153 185.144 43.7833 185.312 43.3353 185.648C42.9033 185.984 42.6873 186.496 42.6873 187.184C42.6873 187.808 42.8873 188.288 43.2873 188.624C43.6873 188.96 44.2473 189.128 44.9673 189.128H52.2873V192.392H50.9673V199.232C50.3593 199.456 49.4393 199.672 48.2073 199.88C46.9753 200.088 45.7993 200.192 44.6793 200.192C42.6953 200.192 41.0473 199.752 39.7353 198.872C38.4233 197.992 37.7673 196.68 37.7673 194.936ZM41.9673 194.552C41.9673 195.256 42.1993 195.816 42.6633 196.232C43.1273 196.648 43.8233 196.856 44.7513 196.856C45.1513 196.856 45.5193 196.832 45.8553 196.784C46.2073 196.736 46.5033 196.68 46.7433 196.616V192.392H44.6553C43.8713 192.392 43.2233 192.568 42.7113 192.92C42.2153 193.272 41.9673 193.816 41.9673 194.552ZM59.8749 199.448V196.184H60.0669C60.6109 196.36 61.3629 196.528 62.3229 196.688C63.2989 196.848 64.1229 196.928 64.7949 196.928H65.4189C66.2349 196.928 66.9229 196.784 67.4829 196.496C68.0429 196.192 68.3229 195.632 68.3229 194.816C68.3229 194.16 68.1309 193.696 67.7469 193.424C67.3629 193.152 66.8349 192.92 66.1629 192.728L63.7389 192.008C62.8109 191.736 61.9469 191.224 61.1469 190.472C60.3469 189.704 59.9469 188.584 59.9469 187.112C59.9469 185.304 60.6189 183.968 61.9629 183.104C63.3229 182.24 64.9069 181.808 66.7149 181.808H67.1469C67.8029 181.808 68.6029 181.88 69.5469 182.024C70.4909 182.152 71.2109 182.312 71.7069 182.504V185.648H71.5149C71.0669 185.52 70.3949 185.392 69.4989 185.264C68.6029 185.136 67.8589 185.072 67.2669 185.072H66.7869C66.0509 185.072 65.4189 185.208 64.8909 185.48C64.3789 185.736 64.1229 186.216 64.1229 186.92C64.1229 187.544 64.3149 187.984 64.6989 188.24C65.0989 188.48 65.5469 188.672 66.0429 188.816L68.4189 189.536C69.5869 189.888 70.5629 190.432 71.3469 191.168C72.1309 191.904 72.5229 193.04 72.5229 194.576C72.5229 196.496 71.8589 197.912 70.5309 198.824C69.2189 199.736 67.5949 200.192 65.6589 200.192H64.7949C64.1069 200.192 63.2509 200.112 62.2269 199.952C61.2029 199.776 60.4189 199.608 59.8749 199.448ZM74.7075 195.128V182H86.5635V185.264H78.9315V189.128H85.6755V192.392H78.9315V194.576C78.9315 195.392 79.0915 195.96 79.4115 196.28C79.7315 196.584 80.2595 196.736 80.9955 196.736H86.6595V200H79.3635C77.8275 200 76.6675 199.576 75.8835 198.728C75.0995 197.88 74.7075 196.68 74.7075 195.128ZM89.2275 200V182H96.3795C98.4595 182 100.067 182.472 101.203 183.416C102.355 184.344 102.931 185.848 102.931 187.928C102.931 189.224 102.691 190.264 102.211 191.048C101.731 191.832 101.003 192.512 100.027 193.088C100.875 193.824 101.683 194.88 102.451 196.256C103.219 197.616 103.755 198.8 104.059 199.808V200H99.8115C99.6035 199.136 99.1155 198.088 98.3475 196.856C97.5955 195.624 96.8595 194.752 96.1395 194.24H93.4275V200H89.2275ZM93.4275 191.096H95.7075C96.8275 191.096 97.6115 190.848 98.0595 190.352C98.5075 189.84 98.7315 189.072 98.7315 188.048C98.7315 186.976 98.5075 186.248 98.0595 185.864C97.6115 185.464 96.8755 185.264 95.8515 185.264H93.4275V191.096ZM120.585 182V182.192C119.993 185.088 119.121 188.344 117.969 191.96C116.817 195.56 115.809 198.24 114.945 200H109.641C108.777 198.24 107.761 195.56 106.593 191.96C105.425 188.344 104.561 185.088 104.001 182.192V182H108.417C108.881 184.384 109.505 187.16 110.289 190.328C111.073 193.496 111.761 195.728 112.353 197.024C112.961 195.728 113.673 193.496 114.489 190.328C115.321 187.16 115.969 184.384 116.433 182H120.585ZM122.182 200V182H126.382V200H122.182ZM128.554 192.008V189.992C128.554 187.208 129.386 185.152 131.05 183.824C132.714 182.48 134.882 181.808 137.554 181.808C138.386 181.808 139.242 181.888 140.122 182.048C141.002 182.192 141.722 182.368 142.282 182.576V187.52H138.898V185.288C138.674 185.224 138.402 185.176 138.082 185.144C137.778 185.096 137.474 185.072 137.17 185.072C135.794 185.072 134.714 185.488 133.93 186.32C133.146 187.136 132.754 188.32 132.754 189.872V192.008C132.754 193.512 133.146 194.712 133.93 195.608C134.73 196.488 135.85 196.928 137.29 196.928H138.154C138.842 196.928 139.578 196.84 140.362 196.664C141.162 196.488 141.738 196.328 142.09 196.184H142.282V199.352C141.85 199.544 141.226 199.736 140.41 199.928C139.594 200.104 138.842 200.192 138.154 200.192H137.05C134.218 200.192 132.09 199.456 130.666 197.984C129.258 196.512 128.554 194.52 128.554 192.008ZM144.565 195.128V182H156.421V185.264H148.789V189.128H155.533V192.392H148.789V194.576C148.789 195.392 148.949 195.96 149.269 196.28C149.589 196.584 150.117 196.736 150.853 196.736H156.517V200H149.221C147.685 200 146.525 199.576 145.741 198.728C144.957 197.88 144.565 196.68 144.565 195.128ZM158.632 199.448V196.184H158.824C159.368 196.36 160.12 196.528 161.08 196.688C162.056 196.848 162.88 196.928 163.552 196.928H164.176C164.992 196.928 165.68 196.784 166.24 196.496C166.8 196.192 167.08 195.632 167.08 194.816C167.08 194.16 166.888 193.696 166.504 193.424C166.12 193.152 165.592 192.92 164.92 192.728L162.496 192.008C161.568 191.736 160.704 191.224 159.904 190.472C159.104 189.704 158.704 188.584 158.704 187.112C158.704 185.304 159.376 183.968 160.72 183.104C162.08 182.24 163.664 181.808 165.472 181.808H165.904C166.56 181.808 167.36 181.88 168.304 182.024C169.248 182.152 169.968 182.312 170.464 182.504V185.648H170.272C169.824 185.52 169.152 185.392 168.256 185.264C167.36 185.136 166.616 185.072 166.024 185.072H165.544C164.808 185.072 164.176 185.208 163.648 185.48C163.136 185.736 162.88 186.216 162.88 186.92C162.88 187.544 163.072 187.984 163.456 188.24C163.856 188.48 164.304 188.672 164.8 188.816L167.176 189.536C168.344 189.888 169.32 190.432 170.104 191.168C170.888 191.904 171.28 193.04 171.28 194.576C171.28 196.496 170.616 197.912 169.288 198.824C167.976 199.736 166.352 200.192 164.416 200.192H163.552C162.864 200.192 162.008 200.112 160.984 199.952C159.96 199.776 159.176 199.608 158.632 199.448Z" fill="#72777A"/>
<defs>
<clipPath id="clip0_514_69">
<rect width="184" height="128" fill="white" transform="translate(18)"/>
</clipPath>
</defs>
</svg>
