<svg width="191" height="201" viewBox="0 0 191 201" fill="none" xmlns="http://www.w3.org/2000/svg">
<g clip-path="url(#clip0_519_74)">
<path fill-rule="evenodd" clip-rule="evenodd" d="M190.998 16.468L158.265 34.433C155.676 35.7224 152.92 35.3756 151.074 33.809C148.222 30.5661 146.859 25.9501 145.742 22.207C145.742 22.207 149.819 21.1666 153.057 19.5729C158.76 16.5789 190.997 0 190.997 0V16.468H190.998Z" fill="#007858"/>
<path fill-rule="evenodd" clip-rule="evenodd" d="M116.3 30.69L103.462 57.887C102.015 60.9332 100.487 65.747 96.6425 67.9931C88.832 73.482 69.6122 76.351 69.6122 76.351L68.28 76.5293C68.28 76.5293 92.6643 30.2954 104.443 8.71234H130.49L172.321 101.984H171.903H146.982C142.487 101.984 142.796 98.2319 138.054 86.207C137.064 83.4631 116.3 30.69 116.3 30.69Z" fill="#72777A"/>
<path fill-rule="evenodd" clip-rule="evenodd" d="M85.2374 12.725C86.7252 17.0909 87.9645 21.583 88.7089 26.074C64.2835 26.573 43.8255 39.1729 28.3267 57.513C24.0795 63.1422 19.0285 69.739 22.6231 77.225C27.8005 87.5485 48.413 85.521 61.6797 83.712C75.3806 81.1551 85.6091 78.223 97.0163 73.482C100.24 72.234 106.563 69.739 106.563 69.739L112.515 66.87L124.419 60.757L127.642 59.135L148.435 47.9385L191 24.39V45.162L156.903 65.747L134.834 77.973C134.834 77.973 103.092 93.318 86.2304 98.308C83.673 99.0896 82.6649 99.3995 79.7823 100.055C63.5402 103.297 44.4457 105.794 29.3196 98.558C21.2606 94.815 14.3167 87.0028 10.7513 79.096C9.26458 75.8542 8.50395 72.484 7.88378 68.991C7.88378 67.743 7.65149 65.9503 7.65149 64.8729C7.65149 46.846 21.2596 33.185 34.1534 23.08C36.8805 20.959 41.4842 17.9639 43.2972 16.9822C45.3122 15.8907 48.722 14.5024 51.8218 13.0054C57.8657 10.355 65.2278 7.78064 72.4656 7.2349C77.7036 7.00116 83.2527 7.48494 85.2374 12.725V12.725Z" fill="#72777A"/>
<path fill-rule="evenodd" clip-rule="evenodd" d="M177.731 113.156V128H7V113.156H177.731Z" fill="#72777A"/>
</g>
<path d="M5.3766 171V156.264H0.240601V153H14.7366V156.264H9.6006V171H5.3766Z" fill="#72777A"/>
<path d="M16.45 166.128V153H28.306V156.264H20.674V160.128H27.418V163.392H20.674V165.576C20.674 166.392 20.834 166.96 21.154 167.28C21.474 167.584 22.002 167.736 22.738 167.736H28.402V171H21.106C19.57 171 18.41 170.576 17.626 169.728C16.842 168.88 16.45 167.68 16.45 166.128Z" fill="#72777A"/>
<path d="M29.971 163.008V160.992C29.971 158.208 30.803 156.152 32.467 154.824C34.131 153.48 36.299 152.808 38.971 152.808C39.803 152.808 40.659 152.888 41.539 153.048C42.419 153.192 43.139 153.368 43.699 153.576V158.52H40.315V156.288C40.091 156.224 39.819 156.176 39.499 156.144C39.195 156.096 38.891 156.072 38.587 156.072C37.211 156.072 36.131 156.488 35.347 157.32C34.563 158.136 34.171 159.32 34.171 160.872V163.008C34.171 164.512 34.563 165.712 35.347 166.608C36.147 167.488 37.267 167.928 38.707 167.928H39.571C40.259 167.928 40.995 167.84 41.779 167.664C42.579 167.488 43.155 167.328 43.507 167.184H43.699V170.352C43.267 170.544 42.643 170.736 41.827 170.928C41.011 171.104 40.259 171.192 39.571 171.192H38.467C35.635 171.192 33.507 170.456 32.083 168.984C30.675 167.512 29.971 165.52 29.971 163.008Z" fill="#72777A"/>
<path d="M45.9822 171V153H50.1822V159.888H56.9262V153H61.1262V171H56.9262V163.392H50.1822V171H45.9822Z" fill="#72777A"/>
<path d="M63.924 171V153H67.38L74.94 163.752V153H79.14V171H75.708L68.148 160.248V171H63.924Z" fill="#72777A"/>
<path d="M81.3357 162.624V161.376C81.3357 158.672 82.0237 156.568 83.3997 155.064C84.7917 153.56 86.8077 152.808 89.4477 152.808C92.0877 152.808 94.0957 153.552 95.4717 155.04C96.8637 156.528 97.5597 158.64 97.5597 161.376V162.624C97.5597 165.328 96.8637 167.432 95.4717 168.936C94.0957 170.44 92.0877 171.192 89.4477 171.192C86.8077 171.192 84.7917 170.448 83.3997 168.96C82.0237 167.472 81.3357 165.36 81.3357 162.624ZM85.5357 162.624C85.5357 164.288 85.8157 165.568 86.3757 166.464C86.9357 167.36 87.9597 167.808 89.4477 167.808C90.9357 167.808 91.9597 167.36 92.5197 166.464C93.0797 165.568 93.3597 164.288 93.3597 162.624V161.376C93.3597 159.712 93.0797 158.432 92.5197 157.536C91.9597 156.64 90.9357 156.192 89.4477 156.192C87.9597 156.192 86.9357 156.64 86.3757 157.536C85.8157 158.432 85.5357 159.712 85.5357 161.376V162.624Z" fill="#72777A"/>
<path d="M99.714 166.128V153H103.938V165.576C103.938 166.392 104.098 166.96 104.418 167.28C104.738 167.584 105.266 167.736 106.002 167.736H110.586V171H104.37C102.834 171 101.674 170.576 100.89 169.728C100.106 168.864 99.714 167.664 99.714 166.128Z" fill="#72777A"/>
<path d="M111.36 162.624V161.376C111.36 158.672 112.048 156.568 113.424 155.064C114.816 153.56 116.832 152.808 119.472 152.808C122.112 152.808 124.12 153.552 125.496 155.04C126.888 156.528 127.584 158.64 127.584 161.376V162.624C127.584 165.328 126.888 167.432 125.496 168.936C124.12 170.44 122.112 171.192 119.472 171.192C116.832 171.192 114.816 170.448 113.424 168.96C112.048 167.472 111.36 165.36 111.36 162.624ZM115.56 162.624C115.56 164.288 115.84 165.568 116.4 166.464C116.96 167.36 117.984 167.808 119.472 167.808C120.96 167.808 121.984 167.36 122.544 166.464C123.104 165.568 123.384 164.288 123.384 162.624V161.376C123.384 159.712 123.104 158.432 122.544 157.536C121.984 156.64 120.96 156.192 119.472 156.192C117.984 156.192 116.96 156.64 116.4 157.536C115.84 158.432 115.56 159.712 115.56 161.376V162.624Z" fill="#72777A"/>
<path d="M129.114 163.008V160.92C129.114 158.136 130.042 156.088 131.898 154.776C133.77 153.464 136.002 152.808 138.594 152.808C139.602 152.808 140.618 152.92 141.642 153.144C142.682 153.352 143.386 153.544 143.754 153.72V156.936H143.586C143.122 156.76 142.394 156.576 141.402 156.384C140.426 156.176 139.506 156.072 138.642 156.072C137.234 156.072 135.994 156.432 134.922 157.152C133.85 157.872 133.314 159.128 133.314 160.92V163.008C133.314 164.608 133.746 165.832 134.61 166.68C135.474 167.512 136.594 167.928 137.97 167.928H138.714C139.002 167.928 139.29 167.912 139.578 167.88C139.866 167.832 140.13 167.776 140.37 167.712V164.4H137.61V161.088H144.018V170.184C143.586 170.36 142.842 170.576 141.786 170.832C140.73 171.072 139.706 171.192 138.714 171.192H137.85C135.034 171.192 132.874 170.44 131.37 168.936C129.866 167.432 129.114 165.456 129.114 163.008Z" fill="#72777A"/>
<path d="M146.672 171V153H150.872V171H146.672Z" fill="#72777A"/>
<path d="M153.669 166.128V153H165.525V156.264H157.893V160.128H164.637V163.392H157.893V165.576C157.893 166.392 158.053 166.96 158.373 167.28C158.693 167.584 159.221 167.736 159.957 167.736H165.621V171H158.325C156.789 171 155.629 170.576 154.845 169.728C154.061 168.88 153.669 167.68 153.669 166.128Z" fill="#72777A"/>
<path d="M167.736 170.448V167.184H167.928C168.472 167.36 169.224 167.528 170.184 167.688C171.16 167.848 171.984 167.928 172.656 167.928H173.28C174.096 167.928 174.784 167.784 175.344 167.496C175.904 167.192 176.184 166.632 176.184 165.816C176.184 165.16 175.992 164.696 175.608 164.424C175.224 164.152 174.696 163.92 174.024 163.728L171.6 163.008C170.672 162.736 169.808 162.224 169.008 161.472C168.208 160.704 167.808 159.584 167.808 158.112C167.808 156.304 168.48 154.968 169.824 154.104C171.184 153.24 172.768 152.808 174.576 152.808H175.008C175.664 152.808 176.464 152.88 177.408 153.024C178.352 153.152 179.072 153.312 179.568 153.504V156.648H179.376C178.928 156.52 178.256 156.392 177.36 156.264C176.464 156.136 175.72 156.072 175.128 156.072H174.648C173.912 156.072 173.28 156.208 172.752 156.48C172.24 156.736 171.984 157.216 171.984 157.92C171.984 158.544 172.176 158.984 172.56 159.24C172.96 159.48 173.408 159.672 173.904 159.816L176.28 160.536C177.448 160.888 178.424 161.432 179.208 162.168C179.992 162.904 180.384 164.04 180.384 165.576C180.384 167.496 179.72 168.912 178.392 169.824C177.08 170.736 175.456 171.192 173.52 171.192H172.656C171.968 171.192 171.112 171.112 170.088 170.952C169.064 170.776 168.28 170.608 167.736 170.448Z" fill="#72777A"/>
<path d="M26.7674 194.936C26.7674 193.928 27.0394 193.032 27.5834 192.248C28.1434 191.448 28.8794 190.872 29.7914 190.52C29.1354 190.2 28.5834 189.712 28.1354 189.056C27.7034 188.4 27.4874 187.608 27.4874 186.68C27.4874 185.032 28.1194 183.808 29.3834 183.008C30.6634 182.208 32.1194 181.808 33.7514 181.808H34.6874C35.2954 181.808 36.0154 181.872 36.8474 182C37.6794 182.128 38.3434 182.296 38.8394 182.504V185.744H38.6474C38.1514 185.616 37.5194 185.488 36.7514 185.36C35.9994 185.216 35.3114 185.144 34.6874 185.144H34.2314C33.4154 185.144 32.7834 185.312 32.3354 185.648C31.9034 185.984 31.6874 186.496 31.6874 187.184C31.6874 187.808 31.8874 188.288 32.2874 188.624C32.6874 188.96 33.2474 189.128 33.9674 189.128H41.2874V192.392H39.9674V199.232C39.3594 199.456 38.4394 199.672 37.2074 199.88C35.9754 200.088 34.7994 200.192 33.6794 200.192C31.6954 200.192 30.0474 199.752 28.7354 198.872C27.4234 197.992 26.7674 196.68 26.7674 194.936ZM30.9674 194.552C30.9674 195.256 31.1994 195.816 31.6634 196.232C32.1274 196.648 32.8234 196.856 33.7514 196.856C34.1514 196.856 34.5194 196.832 34.8554 196.784C35.2074 196.736 35.5034 196.68 35.7434 196.616V192.392H33.6554C32.8714 192.392 32.2234 192.568 31.7114 192.92C31.2154 193.272 30.9674 193.816 30.9674 194.552Z" fill="#72777A"/>
<path d="M48.8749 199.448V196.184H49.0669C49.6109 196.36 50.3629 196.528 51.3229 196.688C52.2989 196.848 53.1229 196.928 53.7949 196.928H54.4189C55.2349 196.928 55.9229 196.784 56.4829 196.496C57.0429 196.192 57.3229 195.632 57.3229 194.816C57.3229 194.16 57.1309 193.696 56.7469 193.424C56.3629 193.152 55.8349 192.92 55.1629 192.728L52.7389 192.008C51.8109 191.736 50.9469 191.224 50.1469 190.472C49.3469 189.704 48.9469 188.584 48.9469 187.112C48.9469 185.304 49.6189 183.968 50.9629 183.104C52.3229 182.24 53.9069 181.808 55.7149 181.808H56.1469C56.8029 181.808 57.6029 181.88 58.5469 182.024C59.4909 182.152 60.2109 182.312 60.7069 182.504V185.648H60.5149C60.0669 185.52 59.3949 185.392 58.4989 185.264C57.6029 185.136 56.8589 185.072 56.2669 185.072H55.7869C55.0509 185.072 54.4189 185.208 53.8909 185.48C53.3789 185.736 53.1229 186.216 53.1229 186.92C53.1229 187.544 53.3149 187.984 53.6989 188.24C54.0989 188.48 54.5469 188.672 55.0429 188.816L57.4189 189.536C58.5869 189.888 59.5629 190.432 60.3469 191.168C61.1309 191.904 61.5229 193.04 61.5229 194.576C61.5229 196.496 60.8589 197.912 59.5309 198.824C58.2189 199.736 56.5949 200.192 54.6589 200.192H53.7949C53.1069 200.192 52.2509 200.112 51.2269 199.952C50.2029 199.776 49.4189 199.608 48.8749 199.448Z" fill="#72777A"/>
<path d="M63.7075 195.128V182H75.5635V185.264H67.9315V189.128H74.6755V192.392H67.9315V194.576C67.9315 195.392 68.0915 195.96 68.4115 196.28C68.7315 196.584 69.2595 196.736 69.9955 196.736H75.6595V200H68.3635C66.8275 200 65.6675 199.576 64.8835 198.728C64.0995 197.88 63.7075 196.68 63.7075 195.128Z" fill="#72777A"/>
<path d="M78.2275 200V182H85.3795C87.4595 182 89.0675 182.472 90.2035 183.416C91.3555 184.344 91.9315 185.848 91.9315 187.928C91.9315 189.224 91.6915 190.264 91.2115 191.048C90.7315 191.832 90.0035 192.512 89.0275 193.088C89.8755 193.824 90.6835 194.88 91.4515 196.256C92.2195 197.616 92.7555 198.8 93.0595 199.808V200H88.8115C88.6035 199.136 88.1155 198.088 87.3475 196.856C86.5955 195.624 85.8595 194.752 85.1395 194.24H82.4275V200H78.2275ZM82.4275 191.096H84.7075C85.8275 191.096 86.6115 190.848 87.0595 190.352C87.5075 189.84 87.7315 189.072 87.7315 188.048C87.7315 186.976 87.5075 186.248 87.0595 185.864C86.6115 185.464 85.8755 185.264 84.8515 185.264H82.4275V191.096Z" fill="#72777A"/>
<path d="M109.585 182V182.192C108.993 185.088 108.121 188.344 106.969 191.96C105.817 195.56 104.809 198.24 103.945 200H98.6412C97.7772 198.24 96.7612 195.56 95.5932 191.96C94.4252 188.344 93.5612 185.088 93.0012 182.192V182H97.4172C97.8812 184.384 98.5052 187.16 99.2892 190.328C100.073 193.496 100.761 195.728 101.353 197.024C101.961 195.728 102.673 193.496 103.489 190.328C104.321 187.16 104.969 184.384 105.433 182H109.585Z" fill="#72777A"/>
<path d="M111.182 200V182H115.382V200H111.182Z" fill="#72777A"/>
<path d="M117.554 192.008V189.992C117.554 187.208 118.386 185.152 120.05 183.824C121.714 182.48 123.882 181.808 126.554 181.808C127.386 181.808 128.242 181.888 129.122 182.048C130.002 182.192 130.722 182.368 131.282 182.576V187.52H127.898V185.288C127.674 185.224 127.402 185.176 127.082 185.144C126.778 185.096 126.474 185.072 126.17 185.072C124.794 185.072 123.714 185.488 122.93 186.32C122.146 187.136 121.754 188.32 121.754 189.872V192.008C121.754 193.512 122.146 194.712 122.93 195.608C123.73 196.488 124.85 196.928 126.29 196.928H127.154C127.842 196.928 128.578 196.84 129.362 196.664C130.162 196.488 130.738 196.328 131.09 196.184H131.282V199.352C130.85 199.544 130.226 199.736 129.41 199.928C128.594 200.104 127.842 200.192 127.154 200.192H126.05C123.218 200.192 121.09 199.456 119.666 197.984C118.258 196.512 117.554 194.52 117.554 192.008Z" fill="#72777A"/>
<path d="M133.565 195.128V182H145.421V185.264H137.789V189.128H144.533V192.392H137.789V194.576C137.789 195.392 137.949 195.96 138.269 196.28C138.589 196.584 139.117 196.736 139.853 196.736H145.517V200H138.221C136.685 200 135.525 199.576 134.741 198.728C133.957 197.88 133.565 196.68 133.565 195.128Z" fill="#72777A"/>
<path d="M147.632 199.448V196.184H147.824C148.368 196.36 149.12 196.528 150.08 196.688C151.056 196.848 151.88 196.928 152.552 196.928H153.176C153.992 196.928 154.68 196.784 155.24 196.496C155.8 196.192 156.08 195.632 156.08 194.816C156.08 194.16 155.888 193.696 155.504 193.424C155.12 193.152 154.592 192.92 153.92 192.728L151.496 192.008C150.568 191.736 149.704 191.224 148.904 190.472C148.104 189.704 147.704 188.584 147.704 187.112C147.704 185.304 148.376 183.968 149.72 183.104C151.08 182.24 152.664 181.808 154.472 181.808H154.904C155.56 181.808 156.36 181.88 157.304 182.024C158.248 182.152 158.968 182.312 159.464 182.504V185.648H159.272C158.824 185.52 158.152 185.392 157.256 185.264C156.36 185.136 155.616 185.072 155.024 185.072H154.544C153.808 185.072 153.176 185.208 152.648 185.48C152.136 185.736 151.88 186.216 151.88 186.92C151.88 187.544 152.072 187.984 152.456 188.24C152.856 188.48 153.304 188.672 153.8 188.816L156.176 189.536C157.344 189.888 158.32 190.432 159.104 191.168C159.888 191.904 160.28 193.04 160.28 194.576C160.28 196.496 159.616 197.912 158.288 198.824C156.976 199.736 155.352 200.192 153.416 200.192H152.552C151.864 200.192 151.008 200.112 149.984 199.952C148.96 199.776 148.176 199.608 147.632 199.448Z" fill="#72777A"/>
<defs>
<clipPath id="clip0_519_74">
<rect width="184" height="128" fill="white" transform="translate(7)"/>
</clipPath>
</defs>
</svg>
