<svg width="383" height="383" viewBox="0 0 383 383" fill="none" xmlns="http://www.w3.org/2000/svg">
<g clip-path="url(#clip0_23_262)">
<path d="M308.026 198.401C307.975 200.253 310.032 191.973 310.032 191.973C309.775 192.642 309.518 193.413 309.261 194.133C309.003 194.596 308.695 195.059 308.386 195.419C307.204 196.91 305.815 198.639 304.324 199.822C304.324 199.822 303.021 201.067 301.005 202.107C300.567 202.333 299.906 202.435 299.512 202.445C298.901 202.46 298.367 202.139 298.205 201.847C297.947 201.384 298.719 200.818 299.439 200.201C300.621 199.173 301.599 197.579 302.113 196.139C302.576 194.647 302.421 193.259 301.393 192.745C301.136 192.591 300.827 192.539 300.57 192.539H300.519C298.822 192.488 297.33 194.699 296.25 196.653L296.045 197.013L295.788 197.476C296.045 196.344 296.302 195.213 296.559 194.082C296.61 193.876 296.662 193.67 296.662 193.67L296.97 192.333C297.69 189.197 298.41 186.06 299.13 182.974C299.387 182.563 299.593 182.1 299.85 181.689C300.21 180.969 300.621 180.249 301.033 179.529C302.884 176.032 304.632 172.484 305.712 168.73C305.918 168.01 306.175 167.033 306.227 166.159V165.079C306.175 164.359 305.764 163.537 304.89 163.588H304.684C303.81 163.742 303.244 164.565 302.73 165.336C302.421 165.799 302.164 166.211 301.907 166.673L301.856 166.776L301.753 166.93L301.701 166.982C299.233 171.507 298.256 176.855 297.073 181.946C297.073 181.946 297.073 181.997 297.022 182.152C296.816 183.077 296.559 184.003 296.353 184.98C295.685 187.808 295.016 190.585 294.348 193.413C292.085 197.784 287.372 205.206 287.097 205.517C287.097 205.517 285.866 207.466 285.146 207.521C284.426 207.577 284.725 208.242 285.732 208.513C286.722 208.779 289.206 206.475 291.931 202.104L292.034 201.898L291.879 202.567C291.622 203.852 291.365 205.086 291.108 206.372L291.005 206.989L290.954 207.246C290.697 208.48 290.645 210.229 291.108 210.897C291.468 211.154 291.931 211.051 292.291 210.743C292.445 210.64 292.497 210.486 292.599 210.332C292.702 209.972 292.857 209.612 292.959 209.252L293.217 208.429L293.422 207.709C294.091 205.652 294.759 203.647 295.582 201.641V201.692C295.633 201.744 295.685 201.847 295.788 202.001C296.61 203.287 297.896 204.161 299.593 204.006H299.696C302.524 203.647 305.301 201.487 307.718 198.761L307.872 198.556L308.026 198.401ZM303.244 167.239C303.655 166.262 304.53 165.696 304.581 165.696C304.787 167.496 304.375 167.907 303.655 169.502C303.655 169.502 301.033 174.644 300.21 176.392C300.21 176.444 301.444 171.25 303.244 167.239ZM297.228 199.121C298.05 197.527 298.77 195.933 300.261 194.75C300.261 194.802 300.262 194.956 300.159 195.162C299.799 196.602 298.616 197.887 297.33 199.018L297.228 199.121Z" fill="#E04F4F"/>
<path d="M351.734 176.939C353.741 177.142 355.9 177.555 355.49 178.787C355.233 179.407 354.614 179.613 353.896 179.613C352.867 179.559 351.476 179.099 349.987 179.045C342.426 178.686 334.97 179.099 327.412 179.251L326.589 181.207C326.253 182.668 325.903 184.132 325.557 185.593L325.255 186.847C324.909 188.308 324.56 189.772 324.223 191.233L324.173 191.439L323.966 192.312V192.363C321.651 202.341 319.543 212.315 318.206 222.344L318.104 223.014C318.26 223.116 319.133 223.836 318.412 225.224C317.796 225.945 316.767 226.459 316.202 225.945L316.151 225.891H316.1C315.843 225.688 315.687 225.326 315.687 224.916C315.637 223.474 315.843 222.036 316.1 220.597L316.151 220.286C316.408 218.949 316.716 217.612 316.973 216.225C317.488 213.243 318.053 210.312 318.618 207.38C319.288 204.037 319.955 200.645 320.676 197.301C320.676 197.301 319.39 198.946 318.361 200.026C317.488 201.004 316.665 201.776 315.894 202.341C315.532 202.598 315.224 202.804 314.865 203.008C313.836 203.627 312.807 203.935 311.829 203.884H311.727C311.006 203.833 310.34 203.522 309.724 203.008C308.437 201.928 307.974 200.283 308.025 198.432L307.872 198.587L307.717 198.794C305.3 201.518 307.202 196.942 308.387 195.45C308.695 195.091 309.003 194.627 309.26 194.164C309.517 193.446 309.774 192.674 310.032 192.004C310.032 192.004 310.184 191.541 310.238 191.439C311.318 188.867 312.858 185.885 315.122 185.678H315.329C316.303 185.628 317.231 186.193 317.589 186.863C317.951 187.635 318.155 188.971 317.796 190C317.383 191.233 316.357 192.725 314.144 193.649C313.115 194.113 311.883 194.268 311.368 195.091V195.142L311.318 195.192C310.698 196.685 309.724 199.461 311.111 201.21L311.213 201.312C311.264 201.413 311.369 201.518 311.47 201.569C311.626 201.671 311.778 201.776 311.934 201.826C312.706 202.134 313.63 201.671 314.144 201.312C314.166 201.29 314.188 201.277 314.211 201.264L314.233 201.255C314.255 201.245 314.277 201.232 314.3 201.21C314.5 201.051 314.693 200.896 314.884 200.737L315.049 200.601C315.24 200.445 315.433 200.286 315.636 200.131C315.945 199.873 316.253 199.616 316.561 199.308C316.869 198.997 317.18 198.689 317.488 198.381C317.666 198.178 317.847 197.987 318.028 197.793L318.18 197.631C318.361 197.438 318.542 197.247 318.72 197.044C318.799 196.949 318.882 196.844 318.968 196.739L319.142 196.526C319.228 196.421 319.314 196.317 319.39 196.221L319.441 196.171C319.508 196.056 319.587 195.955 319.663 195.853L319.733 195.767C319.809 195.666 319.889 195.561 319.955 195.45C320.47 194.729 321.035 193.957 321.6 193.392C321.756 193.24 321.962 193.033 322.115 192.877L322.372 191.798L322.68 190.515L323.042 188.971L323.093 188.816L323.35 187.787C323.576 186.796 323.811 185.799 324.045 184.799L324.249 183.938C324.484 182.938 324.719 181.938 324.944 180.95L325.303 179.407C323.144 179.457 320.984 179.508 318.825 179.559C317.075 179.613 315.328 179.664 313.579 179.715C310.238 179.765 310.34 177.708 311.727 177.606H311.883C316.046 177.555 320.263 177.4 324.43 177.298L325.818 177.247C325.818 177.247 326.075 176.012 326.434 174.624L326.64 173.751C326.691 173.544 326.745 173.338 326.796 173.132C327.412 170.715 328.183 167.784 329.162 167.733C329.314 167.733 329.47 167.784 329.571 167.889L329.622 167.94C330.292 168.556 329.727 170.458 329.314 171.95C328.698 174.211 327.977 177.142 327.977 177.142L330.549 177.041C331.372 177.041 332.245 176.99 333.118 176.99C339.241 176.834 345.411 176.371 351.531 176.939H351.734ZM316.205 188.019C316.218 186.993 314.738 187.711 314.366 188.022C312.975 189.213 312.363 191.159 312.372 191.747C312.369 191.871 312.391 191.941 312.439 191.944C313.684 191.947 315.046 190.772 315.795 189.353C316.094 188.733 316.208 188.305 316.205 188.019Z" fill="#E04F4F"/>
<path d="M120.537 177.729H120.434C119.56 177.781 119.2 179.015 119.869 179.683C119.92 179.838 119.663 180.249 119.355 180.712C119.046 181.226 118.635 181.792 118.172 182.152C118.069 182.255 117.966 182.357 117.915 182.46C117.503 182.974 117.555 183.9 117.915 184.311C118.172 184.517 118.583 184.569 118.943 184.363C120.537 183.386 121.72 181.278 121.874 179.683C121.874 178.604 121.463 177.781 120.537 177.729Z" fill="#E04F4F"/>
<path d="M119.252 197.784H119.149C119.046 197.784 118.995 197.784 118.892 197.836C118.532 197.939 118.275 198.196 118.12 198.504C118.018 198.813 118.069 199.276 118.429 199.738C118.48 199.841 118.532 199.893 118.532 199.944C118.532 200.15 118.429 200.407 118.223 200.715C117.76 201.487 116.938 202.052 116.423 202.618C116.166 202.978 115.961 203.287 115.961 203.595C115.961 203.647 115.961 203.698 116.012 203.749C116.063 203.955 116.166 204.109 116.321 204.212H116.372C116.783 204.521 117.349 204.418 117.606 204.315C117.658 204.264 117.76 204.264 117.812 204.212C118.583 203.595 119.252 202.772 119.663 202.001C120.023 201.333 120.28 200.561 120.434 199.893C120.589 198.761 120.229 197.887 119.252 197.784Z" fill="#E04F4F"/>
<path d="M222.51 184.417C223.488 184.366 224.412 184.931 224.771 185.602C225.133 186.373 225.339 187.71 224.977 188.739C224.568 189.971 223.539 191.464 221.325 192.388C220.195 192.851 218.858 193.007 218.448 193.982C217.829 195.525 216.854 198.25 218.242 200L218.344 200.101C220.3 202.315 223.847 198.456 226.419 195.217V195.166L226.622 194.909C226.692 194.795 226.768 194.693 226.848 194.592L226.915 194.506C226.994 194.404 227.07 194.303 227.137 194.188C228.27 192.696 229.607 191 230.481 191.102C230.633 191.156 231.186 191.257 231.186 191.514C231.186 191.743 231.148 191.978 231.046 192.185C231.046 192.185 230.687 193.007 230.43 193.417L229.553 194.652C229.553 194.652 227.292 197.685 226.057 199.022C223.898 201.387 221.583 203.239 219.423 203.086H219.322C218.601 203.032 217.934 202.724 217.315 202.21C214.488 199.898 215.72 194.547 217.213 190.743L217.264 190.536C217.286 190.492 217.308 190.438 217.331 190.381L217.35 190.333C217.375 190.279 217.397 190.222 217.419 190.178C218.499 187.605 220.042 184.623 222.304 184.417H222.51ZM219.696 190.638C220.938 190.641 222.3 189.466 223.05 188.047C224.384 185.278 222.097 186.341 221.624 186.742C219.976 188.152 219.42 190.622 219.696 190.638Z" fill="#E04F4F"/>
<path d="M239.942 190.637H237.679C236.497 190.637 235.314 190.585 234.131 190.637H234.08C233.926 190.688 233.463 190.996 233.463 191.871V192.128C233.566 192.385 233.771 192.796 234.183 192.899C234.286 192.899 234.388 192.951 234.491 192.951H234.594C236.24 193.156 237.937 192.848 239.634 192.796H239.736C240.508 192.591 240.713 190.842 239.942 190.637Z" fill="#E04F4F"/>
<path d="M286.667 206.561C287.875 205.422 288.757 207.065 286.373 208.588C286.071 208.782 285.745 208.949 285.399 209.047C283.311 209.637 282.617 206.125 282.946 203.736C283.445 200.126 284.523 196.607 285.639 193.13C284.162 194.092 282.477 194.972 280.86 194.728C280.708 194.705 280.558 194.669 280.412 194.626C280.37 194.726 280.322 194.83 280.268 194.939C278.393 198.595 276.038 203.615 272.344 202.756C270.014 202.216 269.315 199.095 268.975 196.146C267.184 198.528 265.015 202.155 262.989 200.714C261.99 200.001 261.765 198.81 261.957 197.477C261.932 197.496 261.907 197.515 261.882 197.533C261.706 197.665 261.529 197.792 261.348 197.913C259.512 199.137 256.354 199.556 255.286 196.661C255.042 196.004 254.915 195.312 254.836 194.617C254.608 195.066 254.381 195.516 254.158 195.965C253.906 196.474 253.661 197.024 253.409 197.567C252.466 199.596 251.44 201.515 249.753 200.656C247.934 199.73 248.257 197.233 248.293 195.103C246.447 197.823 245.178 200.637 243.355 203.507C242.682 204.483 240.331 205.895 241.301 200.624C242.05 196.559 243.318 192.534 245.012 188.798C245.201 188.429 245.564 188.203 245.986 188.205C246.115 188.214 246.238 188.239 246.357 188.287C247.223 188.644 246.874 189.853 246.455 190.863C245.6 192.963 244.889 195.116 244.288 197.304L244.234 197.508C244.465 197.118 244.701 196.732 244.939 196.344C246.311 194.138 247.794 191.28 248.933 190.948C250.103 190.61 250.491 192.567 250.441 194.49C250.403 195.873 250.416 195.948 250.424 196.415C250.456 197.293 250.355 198.753 250.823 197.955C252.621 194.3 254.802 188.998 256.498 191.053C257.481 192.241 256.573 194.329 257.378 196.119C258.271 198.096 262.265 193.904 263.876 192.55C264.222 191.945 264.564 191.407 264.852 190.982C265.755 189.649 267.088 188.408 268.861 188.422C270.544 188.51 272.573 189.918 271.989 191.257C271.758 191.789 271.337 191.766 270.849 191.56C270.719 191.534 270.607 191.48 270.513 191.395C269.939 191.09 269.32 190.654 268.823 190.602C267.97 190.512 267.238 190.915 266.627 191.605C266.368 191.912 266.124 192.262 265.893 192.654C265.863 192.709 265.834 192.763 265.805 192.817C265.626 193.153 265.279 193.618 265.117 194.43C264.66 195.764 264.393 197.216 264.318 198.368C264.318 198.368 266.752 194.782 269.067 192.385C269.866 191.668 270.851 192.333 270.953 194.065C271.111 196.278 271.239 198.658 272.415 200.32C273.656 202.074 277.079 195.754 278.599 193.324C278.059 192.615 277.738 191.714 277.742 190.796C277.753 188.095 279.526 185.648 281.488 184.005C282.681 183.008 285.676 182.751 284.621 186.303C284.004 188.381 282.967 190.331 281.916 192.248L281.736 192.567C283.73 192.244 285.37 189.816 287.191 189.966C290.626 190.452 285.453 198.768 284.796 205.332C284.746 205.843 284.162 208.924 286.667 206.561ZM282.4 186.084C280.906 187.526 279.621 189.478 279.926 191.307C279.926 191.307 281.524 188.961 282.464 186.082C282.464 186.082 282.596 185.905 282.4 186.084Z" fill="#E04F4F"/>
<path d="M75.1842 191.103C75.6466 189.816 76.1611 188.55 76.7194 187.314C76.9089 186.946 77.2713 186.721 77.6921 186.725C77.8212 186.731 77.9441 186.756 78.0628 186.806C78.9481 187.171 78.5773 188.373 78.1607 189.377C77.3067 191.476 76.5943 193.624 75.9965 195.809L75.9403 196.015C76.1736 195.625 76.4089 195.238 76.6464 194.853C77.7004 193.159 78.5295 191.67 79.9251 189.956C80.7249 189.075 82.1309 189.36 82.1684 191.174C82.1871 192.134 82.0767 192.603 82.1246 194.924C82.1559 195.8 82.056 197.259 82.5226 196.459C84.3181 192.811 86.4968 187.514 88.1902 189.566C89.1713 190.753 88.2631 192.841 89.0692 194.626C90.0628 196.825 94.4475 191.507 95.9556 190.783C96.3888 189.606 96.8617 188.448 97.3762 187.314C97.5657 186.946 97.9281 186.721 98.3489 186.725C98.476 186.731 98.5989 186.756 98.7176 186.806C99.582 187.162 99.2363 188.368 98.8176 189.377C97.9615 191.474 97.2512 193.624 96.6534 195.809L96.5971 196.015C96.8283 195.625 97.0658 195.238 97.3032 194.853C98.6738 192.649 100.155 189.793 101.292 189.464C102.461 189.124 102.848 191.08 102.796 192.999C102.761 194.38 102.771 194.455 102.781 194.924C102.813 195.8 102.713 197.259 103.177 196.459C104.973 192.811 107.154 187.514 108.847 189.566C109.828 190.755 108.92 192.838 109.726 194.626C110.663 196.707 115.04 191.953 116.45 190.874C116.704 190.699 117.019 190.645 117.306 190.708C117.425 190.733 117.537 190.778 117.641 190.843C118.325 191.268 118.543 191.714 117.258 193.166C116.864 193.597 116.469 194.026 116.052 194.436C115.727 194.757 115.394 195.071 115.048 195.371C114.779 195.603 114.504 195.827 114.221 196.04C114.048 196.171 113.869 196.296 113.688 196.417C111.857 197.642 108.703 198.058 107.635 195.167C107.393 194.511 107.266 193.82 107.187 193.126C106.958 193.574 106.733 194.024 106.508 194.474C105.321 196.875 104.246 200.246 102.109 199.156C100.294 198.231 100.617 195.74 100.653 193.613C98.8093 196.327 97.5428 199.139 95.7223 202.006C95.0495 202.978 92.702 204.389 93.6706 199.127C93.9101 197.827 94.2018 196.532 94.5434 195.251C94.3642 195.403 94.1726 195.559 93.9747 195.719C93.7539 195.898 93.5289 196.071 93.2977 196.236C91.4605 197.54 88.1423 198.321 86.98 195.167C86.7363 194.511 86.6092 193.82 86.5301 193.126C86.303 193.574 86.0761 194.024 85.8532 194.474C84.6597 196.884 83.5495 200.225 81.454 199.156C79.5564 198.192 79.9605 195.74 79.9959 193.613C78.1525 196.327 76.8881 199.135 75.0655 202.006C74.3927 202.976 72.0348 204.453 73.0138 199.127C73.2492 197.852 73.5344 196.582 73.8698 195.321C72.2596 196.463 70.3829 197.184 68.4437 196.884C68.4437 196.884 67.1918 199.319 65.2255 199.681C63.4196 200.012 61.9989 198.49 61.474 196.504C60.6138 197.606 59.664 198.729 58.7912 199.739C56.8812 201.949 54.192 204.089 51.732 203.199C48.7013 202.101 48.7638 197.423 49.5387 194.49C50.2635 191.741 51.8258 188.595 54.1421 188.683C55.8209 188.822 56.5394 191.003 55.7146 192.957C55.2084 194.026 53.4546 193.511 53.8296 191.741C54.1191 190.181 53.44 191.255 53.1797 191.605C51.4758 193.884 50.5718 197.906 51.1779 200.014C51.2487 200.231 51.3363 200.431 51.4363 200.61C51.4987 200.729 51.5675 200.837 51.6425 200.933C52.8923 202.354 56.0313 200.816 61.9448 191.776C62.226 191.345 62.5572 190.91 62.9384 190.714C63.1383 190.528 63.355 190.358 63.5945 190.201C65.515 188.935 65.2713 188.296 66.6211 188.345C68.6728 188.529 69.154 191.51 69.0916 193.888L69.0061 194.801C71.5848 195.08 74.1865 191.776 75.1842 191.103ZM63.8653 192.889C63.7799 193.066 63.6841 193.253 63.5779 193.445C62.8946 195.051 63.0051 197.288 64.4173 197.544C65.4984 197.74 66.4107 196.096 66.4107 196.096C65.4171 195.501 64.1965 194.297 63.9028 192.832L63.8653 192.889ZM66.4273 190.562C65.6212 191.318 65.8775 192.891 66.9273 193.82C67.0169 192.326 66.6377 190.387 66.4273 190.562Z" fill="#E04F4F"/>
<path fill-rule="evenodd" clip-rule="evenodd" d="M168.104 182.464L165.841 192.08C165.481 193.572 165.173 195.116 164.813 196.656C165.79 194.909 167.178 192.801 168.618 191.67L168.721 191.616C171.241 189.765 172.835 192.337 172.68 194.138C172.578 195.424 171.878 197.735 171.404 198.653C171.041 199.355 170.147 200.632 168.95 201.873C167.813 203.055 166.18 203.966 165.378 204.268C165.121 204.369 164.813 204.474 164.504 204.576C163.681 204.833 163.63 204.525 163.63 204.525C163.607 204.569 163.595 204.604 163.583 204.639L163.574 204.668C163.562 204.703 163.55 204.738 163.527 204.782C162.961 206.325 162.55 208.228 161.419 207.92C161.367 207.92 161.316 207.92 161.264 207.866C161.213 207.866 161.11 207.815 161.059 207.764C160.956 207.713 160.853 207.608 160.802 207.507C160.442 206.992 160.647 206.221 160.802 205.503C160.904 204.731 161.059 204.011 161.213 203.239L161.367 202.467C161.367 202.467 161.624 199.126 161.984 197.478L162.139 196.862C161.676 197.427 161.162 198.047 160.647 198.612C158.488 200.978 156.174 202.829 154.014 202.674H153.911C153.191 202.623 152.523 202.315 151.905 201.8C151.7 201.594 151.494 201.387 151.34 201.181C150.877 200.565 150.568 199.844 150.363 199.072C150.106 197.736 150.209 196.141 150.465 194.804L150.488 194.738L150.475 194.744C148.147 195.91 145.108 196.208 143.253 193.464C143.139 193.868 143.018 194.268 142.895 194.668C142.534 195.817 142.138 196.958 141.667 198.069C141.499 198.463 141.323 198.857 141.135 199.244C141.016 199.492 140.892 199.733 140.76 199.974C140.647 200.178 140.528 200.374 140.402 200.568C140.313 200.708 140.216 200.841 140.113 200.971C139.064 202.28 136.456 203.28 135.831 198.485C133.979 201.254 131.432 205.646 129.117 202.753C127.803 201.111 128.143 198.526 128.514 196.024C128.904 193.401 129.648 190.848 130.527 188.352C130.717 187.929 131.114 187.656 131.579 187.659C134.336 187.824 129.552 195.001 130.454 200.476C130.519 200.867 130.563 201.562 130.948 201.264C133.095 199.511 134.113 196.545 135.935 194.404C136.642 193.699 137.72 194.293 137.762 195.957C137.808 197.272 137.871 198.609 138.32 199.809C140.482 197.107 140.743 192.747 141.947 189.422C142.355 188.437 143.736 188.52 144.144 190.203C144.511 191.588 145.193 193.013 146.569 193.442C148.504 194.045 150.113 192.346 151.445 191.346L151.437 191.387L151.546 191.206L151.648 191C151.802 190.536 152.008 190.076 152.163 189.663C152.163 189.663 152.42 189.149 152.677 188.634C153.705 186.373 155.145 184.16 157.099 183.957H157.305C158.282 183.903 159.208 184.471 159.567 185.138C159.928 185.91 160.133 187.247 159.773 188.275C159.362 189.508 158.333 191 156.122 191.927C154.991 192.388 153.654 192.543 153.243 193.521C152.625 194.96 151.751 197.377 152.728 199.126C152.78 199.228 153.345 199.844 153.499 199.949C153.602 200 153.705 200.051 153.808 200.101C154.682 200.463 156.431 199.384 156.431 199.384L156.585 199.279C156.63 199.234 156.675 199.199 156.72 199.165L156.759 199.136C156.803 199.104 156.848 199.066 156.894 199.022C157.15 198.815 157.356 198.663 157.562 198.456C157.87 198.199 158.179 197.942 158.488 197.634C158.796 197.326 159.105 197.018 159.413 196.71C159.876 196.246 160.236 195.833 160.647 195.373C160.805 195.17 160.972 194.966 161.141 194.763L161.285 194.592C161.454 194.388 161.621 194.185 161.779 193.982C161.824 193.915 161.879 193.849 161.935 193.782L161.983 193.722C162.039 193.655 162.094 193.588 162.139 193.521C162.55 193.007 163.064 192.337 163.527 191.772L163.681 191.616C163.906 190.629 164.141 189.647 164.377 188.669L164.579 187.831C164.816 186.853 165.05 185.871 165.276 184.881L165.327 184.83L165.378 184.573L165.43 184.417L165.687 183.391C165.912 182.401 166.147 181.4 166.383 180.4L166.585 179.542C166.821 178.539 167.056 177.539 167.281 176.551L167.641 175.008L168.207 172.848L169.029 169.352C169.081 169.146 169.132 168.939 169.183 168.733C169.801 166.316 170.572 163.385 171.549 163.334C171.703 163.334 171.858 163.385 171.961 163.49L172.012 163.541C172.68 164.157 172.115 166.059 171.703 167.551C171.086 169.816 170.366 172.747 170.366 172.747L169.852 174.906L169.338 177.015L168.052 182.464H168.104ZM170.418 195.011C169.903 197.84 167.538 200.771 164.658 202.159L164.504 202.261C165.944 198.92 167.23 195.116 170.161 193.417C170.264 193.366 170.366 193.315 170.418 193.264H170.469C170.726 193.417 170.675 194.087 170.418 195.011ZM154.34 190.276C155.584 190.279 156.946 189.104 157.696 187.685C159.028 184.919 156.74 185.979 156.268 186.38C154.619 187.793 154.064 190.263 154.34 190.276Z" fill="#E04F4F"/>
<path d="M351.191 193.333C351.651 191.953 352.298 190.595 352.882 189.534C353.884 187.748 355.303 185.813 357.662 185.859C358.956 185.94 360.5 186.637 360.521 187.802C360.521 188.322 360.208 188.489 359.77 188.491C359.686 188.533 359.582 188.558 359.478 188.564C359.269 188.576 359.081 188.518 358.914 188.384C358.914 188.38 358.914 188.374 358.893 188.368C358.33 188.236 357.766 188.042 357.474 188.042C356.702 188.042 356.013 188.399 355.449 188.983C354.76 189.795 354.176 190.87 353.675 192.206C353.613 192.404 353.55 192.607 353.487 192.809C353.341 193.352 353.237 193.924 353.153 194.297C352.986 195.257 352.924 196.186 352.945 196.96C352.945 196.96 355.616 192.857 357.808 189.975C358.643 189.04 359.937 188.994 359.415 193.068C359.123 195.41 358.643 198.762 358.643 198.762C359.102 198.388 359.185 198.307 360.584 197.265C362.295 196.013 364.028 194.804 365.802 193.634C366.824 192.949 367.972 191.92 368.703 191.943C369.851 191.981 370.331 193.222 367.513 195.074C364.445 197.13 361.419 199.252 358.58 201.613L358.142 201.978C356.43 212.176 354.969 223.031 348.958 231.08C347.664 232.806 345.765 234.623 343.573 233.741C337.927 231.478 341.528 219.429 345.994 212.468C348.77 208.137 352.256 204.284 356.117 200.857C356.514 198.495 356.973 195.222 356.973 195.222C356.702 195.591 356.451 195.959 356.201 196.326C354.99 198.008 353.446 200.54 351.63 199.148C351.254 198.856 350.983 198.476 350.816 198.035C348.395 201.262 345.493 202.848 343.26 195.696C342.78 194.226 343.093 193.926 342.217 193.506C341.507 193.258 338.862 198.956 336.886 203.32C335.696 205.568 334.732 203.506 334.909 202.252C335.143 200.732 335.467 199.236 335.84 197.745C333.202 200.813 329.562 204.007 327.414 201.483C325.646 199.411 326.287 195.598 327.558 192.246C327.74 191.828 328.159 191.565 328.619 191.584C330.86 191.797 327.406 197.393 329.015 200.031C329.94 200.909 334.707 196.011 337.176 192.408C337.243 192.325 337.312 192.254 337.381 192.191C337.648 191.267 337.913 190.34 338.165 189.403C338.32 188.837 338.716 188.353 339.338 188.361C340.413 188.428 340.263 189.902 339.912 191.133C339.912 191.133 338.591 194.454 339.472 193.225C340.465 191.897 341.862 190.745 343.344 191.999C343.49 192.116 343.636 192.262 343.782 192.436C344.408 193.187 345.076 194.42 345.702 196.318C346.287 197.958 346.37 201.69 350.941 193.83C351.024 193.671 351.108 193.5 351.191 193.333ZM343.532 231.363C343.573 231.436 343.615 231.503 343.657 231.568C344.053 232.033 344.492 232.196 345.013 232.058C344.492 232.017 343.97 231.789 343.532 231.363ZM355.47 204.437C350.043 209.671 344.805 216.094 343.364 223.203C343.01 224.912 342.884 226.663 343.01 228.445C343.198 230.71 344.158 234.985 348.082 228.542C352.402 221.426 353.988 212.802 355.533 204.357C355.512 204.385 355.491 204.41 355.47 204.437ZM330.002 186.873C330.768 186.94 331.219 187.913 330.862 188.624C330.378 189.593 328.786 189.795 328.168 189.15C327.433 188.38 328.723 186.834 330.002 186.873Z" fill="#E04F4F"/>
<path d="M202.638 202.541C202.638 203.012 201.528 203.916 200.444 202.313C199.911 201.525 199.448 200.693 199.035 199.836C194.506 201.921 186.942 202.916 189.093 197.654C190.493 194.226 193.863 191.922 196.578 188.795C196.578 188.795 196.273 177.989 201.348 177.885C201.516 177.881 201.686 177.896 201.85 177.931C204.011 178.4 203.582 182.176 202.007 184.995C201.151 186.528 200.089 187.936 198.977 189.292L198.868 189.425C198.944 191.922 199.32 194.417 200.11 196.783C200.11 196.783 202.358 195.632 203.611 193.787C203.611 193.787 201.082 191.252 204.656 191.482C205.819 191.609 206.334 193.137 205.813 194.228C204.853 196.242 202.945 197.673 200.927 198.876C201.026 199.083 201.128 199.287 201.234 199.49C201.524 200.035 201.835 200.568 202.182 201.079C202.414 201.419 202.64 201.717 202.638 202.541ZM196.733 191.825C195.9 192.71 195.049 193.583 194.17 194.427C193.044 195.543 192.959 195.684 192.463 196.294C191.733 197.188 190.657 198.185 190.993 199.262C191.181 199.621 192.21 199.621 193.262 199.463C194.975 199.206 196.615 198.627 198.185 197.909C198.185 197.909 197.194 194.512 196.889 191.688C196.889 191.688 196.785 191.769 196.733 191.825ZM201.279 180.042C200.089 180.403 199.517 182.147 199.214 183.726C198.747 186.76 199.195 185.457 199.531 184.939C200.697 183.108 201.547 179.976 201.279 180.042Z" fill="#E04F4F"/>
<path d="M283.668 134.059L275.93 120.538H265.097L275.767 134.059H283.668ZM299.714 158.739C299.714 147.091 290.836 139.435 280.003 139.435C269.088 139.435 259.803 147.091 259.803 159.391C259.803 171.12 268.355 179.102 280.003 179.102C286.682 179.102 293.361 176.495 296.944 171.69L290.673 165.418C288.392 168.106 284.564 169.654 280.736 169.654C275.604 169.654 272.02 167.21 270.88 162.812H299.551C299.632 161.101 299.714 159.798 299.714 158.739ZM270.88 155.888C272.02 150.757 275.849 148.721 280.165 148.721C284.971 148.721 288.718 151.408 289.044 155.888H270.88Z" fill="#1B5291"/>
<path d="M112.945 139.435C108.22 139.435 103.903 142.123 101.786 148.476V140.413H91.197V178.369H101.867V165.337C101.867 154.504 105.614 149.454 111.071 149.454C112.374 149.454 114.248 149.617 116.528 150.839L118.972 140.657C117.261 139.761 114.981 139.435 112.945 139.435Z" fill="#1B5291"/>
<path d="M161.409 158.739C161.409 147.092 152.531 139.435 141.698 139.435C130.784 139.435 121.498 147.092 121.498 159.391C121.498 171.12 130.051 179.102 141.698 179.102C148.377 179.102 155.056 176.496 158.64 171.69L152.368 165.418C150.088 168.106 146.259 169.654 142.431 169.654C137.3 169.654 133.716 167.21 132.576 162.812H161.247C161.328 161.101 161.409 159.798 161.409 158.739ZM132.576 155.888C133.716 150.757 137.544 148.721 141.861 148.721C146.667 148.721 150.413 151.409 150.739 155.888H132.576Z" fill="#1B5291"/>
<path d="M245.956 133.652C249.703 133.652 252.716 130.801 252.716 127.217C252.716 123.633 249.703 120.864 245.956 120.864C242.291 120.864 239.195 123.633 239.195 127.217C239.195 130.801 242.291 133.652 245.956 133.652ZM240.662 178.369H251.332V140.412H240.662V178.369Z" fill="#1B5291"/>
<path d="M259.547 248.027C266.471 248.027 272.009 244.851 275.593 239.882L267.611 234.262C265.9 236.624 262.724 238.09 259.629 238.09C253.601 238.09 249.529 233.773 249.529 228.153C249.529 222.615 253.601 218.298 259.629 218.298C262.724 218.298 265.9 219.764 267.611 222.126L275.593 216.506C272.009 211.619 266.471 208.361 259.547 208.361C248.47 208.361 238.696 216.098 238.696 228.153C238.696 240.208 248.47 248.027 259.547 248.027Z" fill="#1B5291"/>
<path d="M142.501 208.361C138.184 208.361 132.971 210.071 130.283 213.899V209.338H119.613V265.947H130.283V242.57C132.971 246.398 138.184 248.027 142.501 248.027C152.275 248.027 161.153 240.452 161.153 228.235C161.153 216.017 152.275 208.361 142.501 208.361ZM140.465 238.009C135.496 238.009 130.609 234.099 130.609 228.235C130.609 222.452 135.252 218.379 140.465 218.379C145.841 218.379 150.239 222.696 150.239 228.235C150.239 233.855 145.841 238.009 140.465 238.009Z" fill="#1B5291"/>
<path d="M219.637 209.338V213.899C216.949 210.071 211.817 208.442 207.419 208.442C197.645 208.442 188.767 216.017 188.767 228.235C188.767 240.452 197.645 248.027 207.419 248.027C211.655 248.027 216.949 246.317 219.637 242.57V247.294H230.307V209.338H219.637ZM209.455 238.09C204.08 238.09 199.6 233.773 199.6 228.235C199.6 222.615 204.08 218.461 209.455 218.461C214.424 218.461 219.311 222.37 219.311 228.235C219.311 234.018 214.668 238.09 209.455 238.09Z" fill="#1B5291"/>
<path d="M307.948 161.735V140.417H318.53V148.474C320.645 142.126 324.963 139.441 329.689 139.441C331.724 139.441 334.004 139.766 335.716 140.662L333.271 150.833C330.991 149.611 329.117 149.449 327.815 149.449C322.356 149.449 318.609 154.498 318.609 165.333V174.222H307.948V171.881C308.218 171.125 308.466 170.363 308.688 169.595C308.949 168.683 309.254 167.451 309.317 166.352C309.32 166.292 309.323 166.229 309.323 166.168V165.089C309.323 165.016 309.32 164.942 309.314 164.869C309.231 163.71 308.758 162.564 307.948 161.735Z" fill="#1B5291"/>
<path d="M343.897 173.561C340.356 170.106 338.25 165.212 338.25 159.391C338.25 147.089 347.536 139.441 358.451 139.441C369.283 139.441 378.152 147.089 378.152 158.741C378.152 159.798 378.07 161.1 377.987 162.808H349.327C350.467 167.213 354.052 169.658 359.184 169.658C363.011 169.658 366.841 168.109 369.117 165.419L375.383 171.694C371.829 176.457 365.227 179.058 358.597 179.096C358.863 177.686 358.377 176.521 357.31 175.565C356.367 174.714 354.195 174.063 352.058 173.844C351.953 173.831 351.848 173.828 351.74 173.828H351.671C349.086 173.593 346.494 173.539 343.897 173.561ZM367.491 155.895C367.164 151.408 363.417 148.715 358.612 148.715C354.297 148.715 350.467 150.754 349.327 155.895H367.491Z" fill="#1B5291"/>
<path d="M296.351 208.737C297.679 208.493 299.047 208.366 300.445 208.366C305.834 208.366 310.737 210.258 314.303 213.596C314.176 214.288 314.055 214.98 313.935 215.679C313.684 217.022 313.379 218.353 313.122 219.684C313.115 219.709 313.112 219.734 313.109 219.76L313.058 220.068C312.769 221.672 312.55 223.313 312.604 224.955C312.623 226.378 313.281 227.572 314.176 228.286C314.287 228.375 314.408 228.458 314.532 228.531C315.233 229.023 316.05 229.252 316.936 229.22C317.952 229.182 319.181 228.658 320.146 227.832C320.14 228.858 320.06 230.112 319.984 231.732H291.324C292.464 236.14 296.046 238.585 301.178 238.585C305.008 238.585 308.835 237.035 311.115 234.342L317.38 240.62C313.801 245.419 307.126 248.023 300.445 248.023C288.796 248.023 280.245 240.049 280.245 228.318C280.245 221.119 283.423 215.514 288.247 212.103C288.349 212.313 288.457 212.5 288.571 212.665C288.774 212.961 289.028 213.215 289.317 213.421C290.826 214.501 292.798 214.393 294.309 213.101L294.163 213.209C294.675 212.789 295.221 211.986 295.221 211.986C295.221 211.986 295.192 212.034 295.176 212.056C295.354 211.789 295.487 211.497 295.576 211.192C295.602 211.1 295.63 211.011 295.662 210.922L295.853 210.382C295.881 210.29 295.91 210.201 295.935 210.112C295.916 210.185 296.173 209.36 296.173 209.36C296.18 209.337 296.186 209.312 296.192 209.29L296.351 208.737ZM309.486 224.822C309.162 220.335 305.414 217.642 300.61 217.642C296.291 217.642 292.464 219.68 291.324 224.822H309.486Z" fill="#1B5291"/>
<path d="M46.0453 197.016H41.1961V140.417H51.8567V144.974C54.5433 141.151 59.7608 139.441 64.0796 139.441C73.8574 139.441 82.727 147.089 82.727 159.315C82.727 171.529 73.8574 179.096 64.0796 179.096C59.7608 179.096 54.5433 177.47 51.8567 173.647V186.044C50.9676 186.422 50.1513 187.035 49.4273 187.851C48.1189 189.325 47.1187 191.592 46.5597 193.707C46.2993 194.695 46.1119 195.841 46.0453 197.016ZM62.0218 149.449H62.0028C56.7852 149.449 52.1425 153.523 52.1425 159.309C52.1425 165.177 57.0297 169.09 62.0028 169.09H62.0218H62.0409C64.8704 169.09 67.43 167.94 69.2179 166.032C70.8311 164.314 71.8218 161.976 71.8218 159.309C71.8218 153.767 67.4204 149.449 62.0409 149.449H62.0218Z" fill="#1B5291"/>
<path d="M180.295 248.023H169.634V205.635C172.683 203.126 175.586 197.705 175.119 193.78C174.973 192.548 174.503 191.106 173.747 190.055C172.959 188.953 171.886 188.22 170.632 187.978C170.32 187.918 169.987 187.883 169.634 187.889V187.118L170.549 183.167C170.584 182.996 170.609 182.824 170.625 182.65V182.627L171.765 177.721C171.762 177.743 172.267 175.635 172.267 175.635C172.27 175.628 172.27 175.622 172.273 175.619L172.778 173.456C172.775 173.479 173.474 170.592 174.074 168.359C174.436 167.019 174.83 165.393 174.782 164.272C174.728 162.989 174.242 162.015 173.569 161.351L173.544 161.325C172.883 160.659 171.924 160.252 170.936 160.252C170.879 160.252 170.825 160.252 170.771 160.255C170.403 160.274 170.022 160.351 169.644 160.497V140.417H180.305V147.172C181.448 141.964 186.827 139.441 191.064 139.441C196.684 139.441 201.079 142.126 203.277 146.765C206.208 141.23 212.077 139.441 215.989 139.441C225.516 139.441 230.479 146.114 230.479 157.512V178.366H219.739V158.328C219.739 152.383 216.64 149.938 212.893 149.938C208.653 149.855 205.636 152.545 205.392 158.245V176.791C204.725 175.835 203.766 175.19 202.515 174.917C202.115 174.831 201.702 174.793 201.292 174.803C198.78 174.854 196.891 176.213 195.624 178.366H194.731V158.245C194.731 152.3 191.635 149.938 188.05 149.938C184.217 149.938 180.305 151.729 180.305 158.572V178.366H180.295V248.023ZM173.569 161.351L173.594 161.376L173.505 161.291C173.525 161.31 173.547 161.332 173.569 161.351Z" fill="#1B5291"/>
<path fill-rule="evenodd" clip-rule="evenodd" d="M4.93771 130.439C4.88267 130.209 4.83741 129.974 4.80189 129.735C4.15514 125.386 7.15423 121.331 11.4999 120.685C15.8404 120.039 19.8897 123.046 20.5364 127.395C21.1831 131.744 18.1839 135.799 13.8434 136.444C13.098 136.555 12.3677 136.558 11.6596 136.467C11.6596 136.467 11.2061 148.3 10.3441 148.428C9.48716 148.555 5.70344 133.916 4.93771 130.439Z" fill="#1B5291"/>
<path fill-rule="evenodd" clip-rule="evenodd" d="M22.1978 128.057C22.1427 127.826 22.0975 127.591 22.062 127.353C21.4152 123.003 24.4143 118.949 28.7599 118.302C33.1005 117.657 37.1497 120.664 37.7965 125.013C38.4432 129.362 35.444 133.416 31.1034 134.062C30.358 134.173 29.6278 134.176 28.9197 134.084C28.9197 134.084 28.4662 145.917 27.6042 146.046C26.7472 146.173 22.9635 131.533 22.1978 128.057Z" fill="#1B5291"/>
</g>
<defs>
<clipPath id="clip0_23_262">
<rect width="383" height="383" fill="white"/>
</clipPath>
</defs>
</svg>
